# xmcd
# 
# Track frame offsets:
#     150
#     9897
#     34050
#     61295
#     105575
#     115675
#     134552
#     148002
#     180422
#     224425
#     245932
#     266895
#     292755
# 
# Disc length: 4769
# 
# Revision: 4
# Processed by: cddbd v1.5.2PL0 Copyright (c) Steve Scherf et al.
# Submitted via: fre:ac v1.0.31
# 
DISCID=bf129f0d
DTITLE=Ten Years After - The Anthology - Disc 1
DYEAR=2002
DGENRE=Rock/Pop
TTITLE0=I Want to Know
TTITLE1=I Can't Keep From Crying Sometimes
TTITLE2=Spoonful
TTITLE3=Help Me
TTITLE4=Portable People
TTITLE5=The Sounds
TTITLE6=Rock Your Mama
TTITLE7=Spider In My Web
TTITLE8=I May Be Wrong, But I Won't Be Wrong Always
TTITLE9=Going To Try
TTITLE10=Woman Trouble
TTITLE11=Hear Me Calling
TTITLE12=Boogie On
EXTD=Ten Years After\nThe Anthology 1967-1972 ID3G:   1 YEAR: 2002
EXTT0=
EXTT1=
EXTT2=
EXTT3=
EXTT4=
EXTT5=
EXTT6=
EXTT7=
EXTT8=
EXTT9=
EXTT10=
EXTT11=
EXTT12=
PLAYORDER=
